<svg xmlns="http://www.w3.org/2000/svg" version="1.1" width="512" height="512" viewBox="0 0 512 512">
  <defs>
    <radialGradient id="sphereGradient" cx="35%" cy="35%" r="65%" fx="35%" fy="35%">
      <stop offset="0%" stop-color="#5ff9ff" />
      <stop offset="40%" stop-color="#01f1fe" />
      <stop offset="100%" stop-color="#3a8ccf" />
    </radialGradient>
    <filter id="shadow" x="-20%" y="-20%" width="150%" height="150%">
      <feOffset dx="6" dy="10" in="SourceAlpha" result="offset" />
      <feGaussianBlur stdDeviation="8" result="blur" />
      <feFlood flood-color="black" flood-opacity="0.4" result="flood" />
      <feComposite in="flood" in2="blur" operator="in" result="shadow" />
      <feMerge>
        <feMergeNode in="shadow" />
        <feMergeNode in="SourceGraphic" />
      </feMerge>
    </filter>
  </defs>
  <g>
    <circle cx="256" cy="256" r="256" fill="url(#sphereGradient)" />
    <path fill="#ffffff" filter="url(#shadow)" stroke="#ffffff" stroke-width="16" stroke-linejoin="round" stroke-linecap="round" d="M142.494 309.607c2.83 5.993.266 13.146-5.727 15.975a11.948 11.948 0 0 1-5.116 1.152 12 12 0 0 1-10.859-6.879c-26.874-56.908-15.02-125.052 29.496-169.567 44.516-44.517 112.66-56.372 169.567-29.496 5.993 2.829 8.557 9.981 5.727 15.975-2.83 5.993-9.982 8.561-15.975 5.727-47.771-22.557-104.978-12.607-142.349 24.766-37.371 37.37-47.323 94.575-24.764 142.347zm219.219 52.106c-28.624 28.624-67.027 43.743-105.92 43.746-21.594.001-43.331-4.657-63.646-14.251-5.993-2.829-8.557-9.981-5.727-15.975s9.983-8.557 15.975-5.727c17.048 8.05 35.306 11.96 53.427 11.962 32.656.001 64.887-12.692 88.921-36.727 37.372-37.371 47.324-94.577 24.765-142.349-2.83-5.993-.266-13.146 5.727-15.975 5.995-2.833 13.146-.267 15.975 5.727 26.872 56.909 15.018 125.053-29.497 169.569z"></path>
  </g>
</svg>
